<svg width="884" height="907" viewBox="0 0 884 907" fill="none" xmlns="http://www.w3.org/2000/svg">
<path d="M476.895 50.3393L489.302 51.8882C505.586 53.4371 517.218 45.6926 518.768 30.9781C520.319 16.2635 511.014 5.42116 494.73 3.87226L467.589 0L459.835 67.3773L474.568 68.9262L476.895 50.3393ZM480.772 13.9401L492.404 15.489C500.933 16.2635 504.811 20.9102 504.035 28.6547C503.26 34.8503 499.382 38.7226 492.404 38.7226C491.628 38.7226 490.853 38.7226 490.077 38.7226L478.446 37.1737L480.772 13.9401Z" fill="#FFFFFF"/>
<path d="M787.07 624.982L822.74 644.344L771.561 652.088L766.133 662.93L825.067 694.683L832.046 682.292L796.375 662.93L846.779 655.186L852.982 644.344L793.274 612.591L787.07 624.982Z" fill="#FFFFFF"/>
<path d="M441.225 671.449C495.505 671.449 545.909 650.539 583.13 611.817C657.572 535.92 656.021 406.587 579.253 330.691L509.463 260.99C507.912 259.441 505.586 257.892 502.484 257.892C500.158 257.892 497.832 258.667 495.505 260.99L363.681 392.647C321.807 435.242 317.93 501.845 355.926 545.988C376.863 569.996 407.105 583.936 439.674 583.936C471.467 583.936 502.484 569.996 523.421 545.988C561.418 502.619 557.54 435.242 515.667 392.647L507.912 384.902C505.586 382.579 503.26 381.805 500.158 381.805C497.056 381.805 494.73 382.579 492.404 384.902L426.491 450.731C421.839 455.377 421.839 463.896 426.491 468.543L444.326 486.355C446.653 488.679 449.754 490.228 452.856 490.228C455.958 490.228 459.06 488.679 461.386 486.355L495.505 452.28C504.035 474.739 498.607 499.521 481.547 516.559C469.916 528.176 455.182 534.372 438.898 534.372C420.288 534.372 402.453 525.853 390.821 510.364C372.211 486.356 375.312 451.505 397.8 429.046L501.709 325.27L542.032 365.541C600.965 424.399 602.516 519.657 545.909 577.741C517.993 606.395 479.996 622.659 439.674 622.659C399.351 622.659 361.354 607.17 333.439 577.741C276.832 519.657 278.382 424.399 337.316 365.541L469.14 233.884C473.018 230.012 473.018 224.591 469.14 220.719L446.653 198.26C445.102 196.711 442.775 195.162 440.449 195.162C438.123 195.162 435.796 195.936 434.246 198.26L303.972 329.142C227.204 405.813 223.326 531.274 296.218 608.719C334.214 648.99 385.393 671.449 441.225 671.449Z" fill="#FFFFFF"/>
<path d="M562.193 87.513C580.804 93.7086 599.414 84.4152 605.618 65.0539C611.821 45.6926 602.516 27.1058 583.905 21.6846C580.028 20.1357 576.151 20.1357 573.049 20.1357C558.316 20.1357 545.909 29.4292 541.256 44.1437C534.277 62.7306 543.582 81.3174 562.193 87.513ZM554.439 48.016C558.316 35.6248 569.172 30.2036 580.028 33.3014C590.884 36.3992 595.537 48.016 591.66 59.6328C588.558 69.7006 580.804 75.1218 572.274 75.1218C569.947 75.1218 568.396 75.1218 566.07 74.3473C555.99 71.2495 550.561 60.4072 554.439 48.016Z" fill="#FFFFFF"/>
<path d="M731.239 707.074L764.582 772.128L773.888 760.511L766.133 746.571L784.744 724.112L799.477 729.533L809.558 717.916L739.768 695.457L731.239 707.074ZM773.888 721.014L761.481 736.503L748.298 712.495L773.888 721.014Z" fill="#FFFFFF"/>
<path d="M379.189 71.2495L393.147 69.7006L392.372 54.2116L421.063 51.8882L422.614 68.1517L437.347 66.6028L434.246 30.2036C432.695 10.8423 421.839 0.774451 406.33 0.774451C405.554 0.774451 404.004 0.774451 403.228 0.774451C386.168 2.32335 376.088 14.7146 377.639 34.8503L379.189 71.2495ZM403.228 13.9401C411.758 13.1657 417.961 17.8124 418.737 29.4292L419.512 38.7226L390.821 41.0459L390.046 31.7525C389.27 20.9102 394.698 14.7146 403.228 13.9401Z" fill="#FFFFFF"/>
<path d="M113.989 453.829C113.989 635.05 261.323 782.196 442 782.196C622.677 782.196 770.011 635.05 770.011 453.829C770.011 272.607 622.677 125.461 442 125.461C261.323 125.461 113.989 273.381 113.989 453.829ZM442 146.371C611.821 146.371 749.849 284.224 749.849 454.603C749.849 624.982 611.821 762.06 442 762.06C272.179 762.06 134.151 624.208 134.151 453.829C134.151 283.449 272.179 146.371 442 146.371Z" fill="#FFFFFF"/>
<path d="M866.165 436.016C856.084 436.016 848.33 443.761 848.33 453.829C848.33 463.896 856.084 471.641 866.165 471.641C876.246 471.641 884 463.896 884 453.829C884 444.535 876.246 436.016 866.165 436.016Z" fill="#FFFFFF"/>
<path d="M840.575 305.908L804.905 316.751L808.782 330.691L824.291 326.044L832.821 353.15L817.312 357.797L821.19 371.737L856.86 360.894C876.246 354.699 884 340.759 879.347 324.495C875.47 312.104 866.165 304.359 852.982 304.359C849.105 303.585 845.228 304.359 840.575 305.908ZM866.165 327.593C868.491 336.112 864.614 343.082 853.758 346.18L844.453 349.278L835.923 322.172L845.228 319.074C856.86 315.976 863.839 319.848 866.165 327.593Z" fill="#FFFFFF"/>
<path d="M280.709 102.228L265.2 65.0539L309.4 90.6108L320.256 85.9641L294.667 24.008L281.484 29.4292L296.993 67.3773L252.793 41.0459L241.937 45.6926L267.526 107.649L280.709 102.228Z" fill="#FFFFFF"/>
<path d="M778.54 261.765L793.274 253.246L805.681 256.343L791.723 286.547L799.477 301.262L819.639 259.441L858.411 267.96L850.656 254.02L809.558 244.727L837.474 229.238L830.495 216.846L771.561 248.599L778.54 261.765Z" fill="#FFFFFF"/>
<path d="M818.088 539.018L814.211 552.958L837.474 577.741L804.13 584.711L799.477 599.425L847.554 589.358L870.818 596.328L875.47 582.387L852.207 575.417L818.088 539.018Z" fill="#FFFFFF"/>
<path d="M759.154 230.787L769.235 223.042L747.523 196.711L759.93 186.643L777.765 209.102L787.07 201.357L769.235 178.898L780.867 169.605L801.028 195.162L811.109 187.417L780.867 150.244L728.912 192.838L759.154 230.787Z" fill="#FFFFFF"/>
<path d="M636.635 119.266L663 71.2495L680.06 81.3174L686.263 69.7006L638.961 43.3693L632.758 54.9861L650.593 64.2795L623.453 112.295L636.635 119.266Z" fill="#FFFFFF"/>
<path d="M679.284 147.92L697.119 126.236L718.832 144.822L700.997 165.733L711.853 175.026L755.277 123.138L743.646 113.844L727.361 134.755L704.874 116.168L721.933 96.032L711.077 86.7386L667.653 138.627L679.284 147.92Z" fill="#FFFFFF"/>
<path d="M55.8316 285.773C73.6667 295.066 93.0526 289.645 102.358 271.832C111.663 254.795 105.46 234.659 87.6246 225.365C82.1965 222.268 75.993 220.719 70.5649 220.719C58.1579 220.719 47.3018 226.914 41.0982 238.531C31.793 257.118 37.9965 276.479 55.8316 285.773ZM52.7298 245.501C58.1579 235.433 69.7895 232.335 80.6456 238.531C91.5018 244.727 95.3789 256.343 90.7263 265.637C87.6246 271.832 81.4211 275.705 73.6667 275.705C69.7895 275.705 65.9123 274.93 62.0351 272.607C51.1789 267.186 47.3018 255.569 52.7298 245.501Z" fill="#FFFFFF"/>
<path d="M290.971 807.206L265.416 869.564L279.052 875.138L304.607 812.78L290.971 807.206Z" fill="#FFFFFF"/>
<path d="M17.8351 472.415C27.9158 472.415 35.6702 464.671 35.6702 454.603C35.6702 444.535 27.9158 436.791 17.8351 436.791C7.75439 436.791 0 444.535 0 453.829C0 463.896 7.75439 472.415 17.8351 472.415Z" fill="#FFFFFF"/>
<path d="M543.582 882.1L539.705 866.611L567.621 859.641L565.295 848.024L536.603 854.994L533.502 841.054L565.295 832.535L562.193 820.144L516.442 831.761L532.726 897.589L580.028 885.198L576.926 873.581L543.582 882.1Z" fill="#FFFFFF"/>
<path d="M210.144 78.994L214.796 93.7086L222.551 89.0619L219.449 74.3473C217.898 69.7006 217.123 67.3773 216.347 65.8284C214.796 62.7306 211.695 61.1817 208.593 61.1817C207.042 61.1817 205.491 61.9561 203.94 62.7306C200.063 65.0539 198.512 70.4751 201.614 75.1218C203.165 78.2196 206.267 79.7685 210.144 78.994Z" fill="#FFFFFF"/>
<path d="M483.874 869.709L485.425 889.07C481.547 891.394 478.446 892.168 474.568 892.943C462.937 893.717 453.632 885.198 452.856 872.807C452.081 859.641 459.835 851.122 472.242 850.348C478.446 849.573 483.874 851.897 488.526 857.318L497.056 847.25C490.853 840.28 483.098 837.182 473.018 837.182C472.242 837.182 471.467 837.182 470.691 837.182C450.53 838.731 437.347 854.22 438.898 874.356C440.449 894.491 455.182 908.432 475.344 906.883C483.874 906.108 493.179 903.01 500.158 896.815L498.607 869.709H483.874Z" fill="#FFFFFF"/>
<path d="M30.2421 367.09C49.6281 372.511 67.4632 363.218 72.8912 343.856C75.2175 335.337 75.2175 325.27 71.3403 317.525L44.9754 309.781L41.0982 322.172L59.7088 327.593C60.4842 331.465 60.4842 335.337 59.7088 339.21C57.3825 350.827 46.5263 356.248 34.1193 353.15C21.7123 349.278 15.5088 339.21 19.386 327.593C20.9368 321.397 24.814 316.751 31.0175 314.427L24.814 302.036C15.5088 305.908 9.30526 313.653 6.20351 323.721C0.775439 343.082 10.0807 361.669 30.2421 367.09Z" fill="#FFFFFF"/>
<path d="M358.253 871.258L337.316 824.016L325.684 821.693L310.175 887.521L324.133 890.619L333.439 850.348L354.375 897.589L366.007 900.687L381.516 834.859L367.558 831.761L358.253 871.258Z" fill="#FFFFFF"/>
<path d="M694.018 745.797L700.997 793.038L656.796 773.677L647.491 781.422L688.589 834.859L699.446 826.34L675.407 795.362L709.526 809.302L714.179 805.43L708.751 768.256L733.565 800.008L744.421 792.264L703.323 738.827L694.018 745.797Z" fill="#FFFFFF"/>
<path d="M192.309 158.763C207.818 145.597 210.144 126.236 196.961 110.747C189.982 102.228 180.677 98.3553 172.147 98.3553C164.393 98.3553 156.639 101.453 149.66 107.649L127.947 126.236L171.372 178.124L192.309 158.763ZM156.639 117.717C165.944 109.972 177.575 110.747 186.105 120.814C194.635 130.882 193.084 141.725 183.779 150.244L173.698 158.763L146.558 127.01L156.639 117.717Z" fill="#FFFFFF"/>
<path d="M158.965 189.741L148.884 181.996L129.498 206.004L86.8491 171.154L78.3193 182.771L130.274 225.365L158.965 189.741Z" fill="#FFFFFF"/>
<path d="M641.288 812.4C636.635 803.106 629.656 798.459 620.351 798.459C615.698 798.459 611.046 799.234 606.393 801.557L581.579 813.174L610.27 874.356L623.453 868.16L615.698 851.122L627.33 845.701H628.105L646.716 857.318L660.674 851.122L638.961 837.182C644.389 830.212 645.165 821.693 641.288 812.4ZM621.126 834.859L610.27 839.505L600.19 817.821L611.046 813.174C618.8 809.302 625.003 811.625 628.105 817.821C631.207 825.565 628.881 830.986 621.126 834.859Z" fill="#FFFFFF"/>
<path d="M212.47 811.625L210.144 760.511L200.839 753.541L162.067 808.527L173.698 817.046L196.961 783.745L199.288 834.859L208.593 841.829L247.365 786.068L235.733 778.324L212.47 811.625Z" fill="#FFFFFF"/>
<path d="M111.663 646.667C109.337 643.569 107.011 640.471 103.909 638.922C92.2772 630.404 76.7684 630.403 63.586 639.697C46.5263 650.539 43.4246 671.449 54.2807 686.938C65.9123 703.202 86.0737 706.3 102.358 694.683C119.418 683.066 122.519 662.93 111.663 646.667ZM94.6035 683.066C86.0737 689.262 76.7684 689.262 69.7895 683.841C68.2386 682.292 66.6877 681.517 65.1368 679.194C58.9333 669.9 61.2596 658.284 71.3403 650.539C81.4211 642.795 93.8281 645.118 100.032 653.637C107.011 663.705 104.684 675.322 94.6035 683.066Z" fill="#FFFFFF"/>
<path d="M57.3825 593.23C59.7088 594.779 62.8105 594.004 65.1368 593.23C76.7684 590.132 81.4211 583.162 77.5439 571.545L69.014 545.988L5.42807 567.673L13.9579 593.23C19.386 608.719 27.1404 617.238 45.7509 611.042C55.0561 607.944 58.1579 601.749 57.3825 593.23ZM37.9965 598.651C32.5684 600.2 27.9158 598.651 24.814 591.681C24.814 590.906 24.0386 590.132 24.0386 589.358L20.1614 578.515L40.3228 571.545L44.2 582.387C47.3018 590.906 44.9754 596.328 37.9965 598.651ZM63.586 563.801L66.6877 573.094C68.2386 576.966 65.1368 580.064 62.8105 580.839C60.4842 581.613 55.8316 582.388 54.2807 576.192L51.1789 567.673L63.586 563.801Z" fill="#FFFFFF"/>
<path d="M169.046 727.984C167.495 724.112 165.168 719.465 161.291 715.593L142.681 696.232L93.8281 742.699L103.909 752.767L117.091 739.601L125.621 748.895L126.396 749.669L120.968 771.354L131.825 782.196L138.028 757.414C146.558 760.511 155.088 758.962 162.067 751.992C169.821 745.022 172.147 736.503 169.046 727.984ZM152.761 741.924C147.333 747.346 141.13 746.571 134.926 740.376L126.396 731.857L143.456 715.593L151.986 724.112C158.189 730.308 158.189 736.503 152.761 741.924Z" fill="#FFFFFF"/>
</svg>
